<svg xmlns="http://www.w3.org/2000/svg" id="Layer_2" viewBox="0 0 308 38.18"><defs><style>.cls-1{fill:#935ccd;}.cls-2{fill:#af88e7;}.cls-3{fill:#242436;}</style></defs><g id="Layer_1-2"><path class="cls-1" d="m44.86,35.17l-7.08-11h0l-.36-.56-.7-1.09-5.07-7.88L23.56,1.89c-.57-.89-1.87-.89-2.43,0l-6.31,10.06h0s-9.31,14.84-9.31,14.84L.25,35.18c-.6.96.09,2.2,1.22,2.2h42.19c1.14,0,1.82-1.26,1.21-2.21Z"/><path class="cls-2" d="m17.69,16.2c3.13,1.36,6.53,1.27,10.2-.27,1.26-.53,2.38-1.16,3.36-1.89L23.53,1.89c-.57-.89-1.87-.89-2.43,0l-6.31,10.06h0s-.91,1.45-.91,1.45c1.16,1.26,2.43,2.19,3.81,2.79Z"/><path class="cls-3" d="m44.84,35.17l-7.08-11-.36-.56-.7-1.09-.92-1.42c-.1.11-.19.21-.29.32-2.08,2.19-4.8,3.99-8.17,5.41-3.74,1.57-7.4,2.22-10.98,1.95-3.57-.27-6.78-1.41-9.61-3.41-.08-.06-.15-.12-.23-.18l-1.01,1.62L.22,35.18c-.6.96.09,2.2,1.22,2.2h42.19c1.14,0,1.82-1.26,1.21-2.21Z"/><path class="cls-3" d="m80.11,18.92c0,1.29-.35,2.28-1.06,2.96-.71.69-1.73,1.03-3.06,1.03h-18.7v-2.79h10.41c1.09,0,1.63-.5,1.63-1.51,0-2.62-.39-4.56-1.18-5.8-.79-1.25-1.85-1.87-3.18-1.87-.98,0-1.86.32-2.64.97-.78.64-1.39,1.61-1.84,2.89-.45,1.28-.68,2.84-.68,4.68,0,3.85.89,6.7,2.66,8.55,1.77,1.85,4.15,2.78,7.14,2.78,1.58,0,2.98-.26,4.22-.77,1.24-.51,2.31-1.33,3.21-2.46.49-.47.87-.79,1.14-.95.27-.16.53-.25.8-.25.37,0,.63.18.8.54.16.36.25.78.25,1.27-.04,1.78-.66,3.44-1.84,4.96-1.19,1.53-2.82,2.74-4.9,3.65-2.08.91-4.49,1.37-7.23,1.37-3.05,0-5.77-.61-8.17-1.84-2.4-1.23-4.28-2.95-5.67-5.16-1.38-2.21-2.07-4.79-2.07-7.74,0-3.24.65-6.07,1.94-8.51,1.29-2.44,3.15-4.34,5.59-5.7,2.44-1.36,5.36-2.04,8.78-2.04,2.95,0,5.44.5,7.48,1.51,2.04,1,3.58,2.39,4.62,4.16,1.04,1.77,1.57,3.79,1.57,6.07Z"/><path class="cls-3" d="m100.35,37.5h-4.02c-.76,0-1.41-.19-1.95-.58-.54-.39-.99-.98-1.34-1.78l-8.78-21.62c-.33-.78-.59-1.29-.8-1.55-.2-.26-.43-.43-.68-.54l-.83-.28c-.41-.16-.7-.37-.88-.61-.17-.25-.26-.56-.26-.95,0-.49.17-.88.52-1.15.35-.28.83-.41,1.44-.41h15.14c1.29,0,1.93.52,1.93,1.57,0,.39-.11.71-.32.95-.22.25-.57.44-1.06.58l-.98.22c-.88.23-1.41.6-1.6,1.12-.18.52-.03,1.43.46,2.72l6.6,17.17-2.43,1.38,6.88-18.55c.47-1.31.61-2.23.43-2.75-.18-.52-.71-.89-1.57-1.09l-.98-.22c-.49-.14-.84-.34-1.06-.58-.21-.25-.32-.56-.32-.95,0-.49.17-.88.52-1.15.35-.28.82-.41,1.41-.41h8.14c.61,0,1.1.14,1.44.41.35.28.52.66.52,1.15,0,.35-.09.65-.26.91-.17.26-.52.47-1.03.63l-.77.18c-.37.12-.72.47-1.04,1.03-.33.56-.75,1.5-1.26,2.81l-7.92,20.21c-.35.86-.81,1.43-1.4,1.72-.58.29-1.22.43-1.92.43Z"/><path class="cls-3" d="m145,18.92c0,1.29-.35,2.28-1.06,2.96-.71.69-1.73,1.03-3.06,1.03h-18.7v-2.79h10.41c1.09,0,1.63-.5,1.63-1.51,0-2.62-.39-4.56-1.18-5.8-.79-1.25-1.85-1.87-3.18-1.87-.98,0-1.86.32-2.64.97-.78.64-1.39,1.61-1.84,2.89-.45,1.28-.68,2.84-.68,4.68,0,3.85.89,6.7,2.66,8.55,1.77,1.85,4.15,2.78,7.14,2.78,1.58,0,2.98-.26,4.22-.77,1.24-.51,2.31-1.33,3.21-2.46.49-.47.87-.79,1.14-.95.27-.16.53-.25.8-.25.37,0,.63.18.8.54.16.36.25.78.25,1.27-.04,1.78-.66,3.44-1.84,4.96-1.19,1.53-2.82,2.74-4.9,3.65-2.08.91-4.49,1.37-7.23,1.37-3.05,0-5.77-.61-8.17-1.84-2.4-1.23-4.28-2.95-5.67-5.16-1.38-2.21-2.07-4.79-2.07-7.74,0-3.24.65-6.07,1.94-8.51,1.29-2.44,3.15-4.34,5.59-5.7,2.44-1.36,5.36-2.04,8.78-2.04,2.95,0,5.44.5,7.48,1.51,2.04,1,3.58,2.39,4.62,4.16,1.04,1.77,1.57,3.79,1.57,6.07Z"/><path class="cls-3" d="m162.27,9.64l.68,6.66v15.33c0,.66.11,1.13.32,1.41.22.29.67.49,1.37.61l2.46.46c.55.1.96.29,1.23.55.27.27.4.63.4,1.11,0,.51-.17.91-.52,1.18-.35.28-.86.41-1.54.41h-15.66c-.72,0-1.23-.14-1.55-.41-.32-.28-.48-.66-.48-1.15,0-.37.1-.69.29-.95.19-.27.51-.48.94-.65l.95-.31c.33-.14.57-.37.72-.69.15-.32.23-.83.23-1.55v-15.88c0-.59-.08-1.02-.25-1.27-.16-.26-.43-.42-.8-.51l-1.14-.15c-.41-.12-.7-.3-.88-.52-.17-.23-.26-.51-.26-.86,0-.43.12-.77.37-1.03.25-.26.68-.5,1.29-.72l6.08-2.3c1.23-.49,2.12-.81,2.69-.95.56-.14,1-.22,1.31-.22.51,0,.9.18,1.17.55.27.37.46.98.58,1.84Zm-.49,11.21c0-3.07.42-5.62,1.26-7.65.84-2.03,1.94-3.54,3.3-4.53,1.36-.99,2.84-1.49,4.44-1.49,2.07,0,3.66.6,4.78,1.81,1.12,1.21,1.67,2.99,1.67,5.34s-.46,3.92-1.37,5.01c-.91,1.09-2.1,1.63-3.58,1.63s-2.59-.38-3.35-1.15c-.76-.77-1.14-1.84-1.14-3.21v-1.23c-.02-.57-.16-1.01-.41-1.31-.26-.3-.66-.45-1.21-.45s-1.07.24-1.57.71c-.49.47-.89,1.21-1.2,2.21-.31,1-.46,2.32-.46,3.96l-1.17.34Z"/><path class="cls-3" d="m182.69,11.52l-1.17-.4c-.49-.16-.84-.37-1.06-.63-.22-.26-.32-.57-.32-.94,0-.49.17-.87.52-1.14.35-.27.8-.4,1.35-.4h1.78c.43,0,.81-.1,1.15-.29.34-.19.73-.55,1.18-1.06l4.15-4.88c.55-.61,1.08-1.06,1.57-1.35.49-.29.97-.43,1.44-.43.51,0,.91.17,1.2.51.29.34.43.81.43,1.43v25.46c0,1.45.27,2.56.81,3.33.54.77,1.31,1.15,2.29,1.15.76,0,1.35-.17,1.77-.52.42-.35.76-.74,1.01-1.18.26-.44.51-.83.77-1.18.26-.35.61-.52,1.06-.52.35,0,.63.12.84.37s.32.67.32,1.26c0,1.45-.44,2.79-1.32,4.01-.88,1.22-2.09,2.19-3.64,2.92-1.55.73-3.31,1.09-5.3,1.09-2.99,0-5.31-.73-6.97-2.2-1.66-1.46-2.49-3.67-2.49-6.62v-15.85c0-.57-.11-.99-.32-1.26-.22-.27-.57-.49-1.06-.68Zm8.26.22v-3.72h10.72c.55,0,.99.12,1.32.35.33.24.49.58.49,1.03,0,.66-.32,1.21-.97,1.66-.65.45-1.7.68-3.18.68h-8.38Z"/><path class="cls-3" d="m220.28,9.64l.68,6.66v15.33c0,.66.11,1.13.32,1.41.22.29.67.49,1.37.61l2.46.46c.55.1.96.29,1.23.55.27.27.4.63.4,1.11,0,.51-.17.91-.52,1.18-.35.28-.86.41-1.54.41h-15.66c-.72,0-1.23-.14-1.55-.41-.32-.28-.48-.66-.48-1.15,0-.37.1-.69.29-.95.19-.27.51-.48.94-.65l.95-.31c.33-.14.57-.37.72-.69.15-.32.23-.83.23-1.55v-15.88c0-.59-.08-1.02-.25-1.27-.16-.26-.43-.42-.8-.51l-1.14-.15c-.41-.12-.7-.3-.88-.52-.17-.23-.26-.51-.26-.86,0-.43.12-.77.37-1.03.25-.26.68-.5,1.29-.72l6.08-2.3c1.23-.49,2.12-.81,2.69-.95.56-.14,1-.22,1.31-.22.51,0,.9.18,1.17.55.27.37.46.98.58,1.84Zm-.49,11.21c0-3.07.42-5.62,1.26-7.65.84-2.03,1.94-3.54,3.3-4.53,1.36-.99,2.84-1.49,4.44-1.49,2.07,0,3.66.6,4.78,1.81,1.12,1.21,1.67,2.99,1.67,5.34s-.46,3.92-1.37,5.01c-.91,1.09-2.1,1.63-3.58,1.63s-2.59-.38-3.35-1.15c-.76-.77-1.14-1.84-1.14-3.21v-1.23c-.02-.57-.16-1.01-.41-1.31-.26-.3-.66-.45-1.21-.45s-1.07.24-1.57.71c-.49.47-.89,1.21-1.2,2.21-.31,1-.46,2.32-.46,3.96l-1.17.34Z"/><path class="cls-3" d="m241.84,28.59v-12.9c0-.59-.08-1.02-.25-1.27-.16-.26-.43-.42-.8-.51l-1.14-.15c-.41-.12-.7-.3-.88-.52-.17-.23-.26-.51-.26-.86,0-.43.12-.77.35-1.01.24-.25.67-.49,1.31-.74l6.23-2.36c.96-.37,1.72-.62,2.29-.77.56-.14,1.05-.21,1.46-.21.84,0,1.47.22,1.89.66.42.44.63,1.01.63,1.7v17.41c0,1.56.37,2.72,1.11,3.49.74.77,1.74,1.15,3.01,1.15.8,0,1.64-.17,2.52-.52.88-.35,1.74-.88,2.58-1.6l1.14-1.01,1.66,1.72-1.07.95c-2.74,2.58-5.13,4.38-7.16,5.41-2.03,1.02-3.91,1.54-5.65,1.54-2.68,0-4.85-.88-6.5-2.64-1.65-1.76-2.47-4.07-2.47-6.94Zm19.99,3.38v-.92l-.37-.06v-15.3c0-.59-.08-1.02-.25-1.27-.16-.26-.42-.42-.77-.51l-1.17-.15c-.39-.12-.68-.3-.86-.52-.18-.23-.28-.51-.28-.86,0-.43.12-.77.35-1.01.24-.25.68-.49,1.34-.74l6.2-2.36c.92-.35,1.66-.6,2.23-.75.56-.15,1.11-.23,1.64-.23.78,0,1.37.22,1.78.66.41.44.61,1.01.61,1.7v21.99c0,.74.08,1.26.23,1.58.15.32.4.55.75.69l.89.31c.45.16.77.38.97.65.19.27.29.58.29.95,0,.49-.16.88-.49,1.15-.33.28-.84.41-1.54.41h-6.82c-1.29,0-2.41-.52-3.35-1.57-.94-1.04-1.41-2.32-1.41-3.84Z"/><path class="cls-3" d="m308,18.92c0,1.29-.35,2.28-1.06,2.96-.71.69-1.73,1.03-3.06,1.03h-18.7v-2.79h10.41c1.09,0,1.63-.5,1.63-1.51,0-2.62-.39-4.56-1.18-5.8-.79-1.25-1.85-1.87-3.18-1.87-.98,0-1.86.32-2.64.97-.78.64-1.39,1.61-1.84,2.89-.45,1.28-.68,2.84-.68,4.68,0,3.85.89,6.7,2.66,8.55,1.77,1.85,4.15,2.78,7.14,2.78,1.58,0,2.98-.26,4.22-.77,1.24-.51,2.31-1.33,3.21-2.46.49-.47.87-.79,1.14-.95.27-.16.53-.25.8-.25.37,0,.63.18.8.54.16.36.25.78.25,1.27-.04,1.78-.66,3.44-1.84,4.96-1.19,1.53-2.82,2.74-4.9,3.65-2.08.91-4.49,1.37-7.23,1.37-3.05,0-5.77-.61-8.17-1.84-2.4-1.23-4.28-2.95-5.67-5.16-1.38-2.21-2.07-4.79-2.07-7.74,0-3.24.65-6.07,1.94-8.51,1.29-2.44,3.15-4.34,5.59-5.7,2.44-1.36,5.36-2.04,8.78-2.04,2.95,0,5.44.5,7.48,1.51,2.04,1,3.58,2.39,4.62,4.16,1.04,1.77,1.57,3.79,1.57,6.07Z"/></g></svg>