<svg xmlns="http://www.w3.org/2000/svg" width="350" height="100" viewBox="0 0 350 100" fill="none"><g clip-path="url(#clip0_314_160)"><path d="M302.478 73.2837C294.959 73.2391 289.096 67.311 289.14 59.912C289.185 52.6467 295.272 46.6294 302.567 46.7185C309.952 46.8077 315.815 52.7358 315.77 60.0903C315.726 67.5339 309.907 73.3283 302.478 73.2837ZM328.436 37.18C328.436 35.7537 327.362 35.0406 326.064 35.62L317.695 39.2749C308.385 30.8062 292.497 32.2771 283.322 42.2613C274.102 52.3347 274.192 67.8013 283.635 78.0084C292.631 87.7252 308.43 89.0623 317.74 80.6827L326.064 84.4714C327.362 85.0508 328.436 84.3822 328.436 82.9559V37.18Z" fill="#0D21A1"/><path d="M275.477 33.9452H264.735C263.84 33.9452 263.258 34.1235 262.855 35.0595L249.518 66.8708L236.941 36.7979C236.091 34.8367 234.614 33.9007 232.466 33.9452H223.694C222.53 33.9452 221.769 34.4801 222.396 35.951C222.396 35.951 235.375 66.9153 241.909 81.6242C242.357 82.6048 242.267 83.3626 241.865 84.2986C239.314 90.0038 236.852 95.7537 234.301 101.459C233.943 102.261 234.256 103.153 235.241 103.153H244.505C246.654 103.197 248.131 102.306 248.981 100.345L276.73 35.9064C277.312 34.6138 276.954 33.9452 275.477 33.9452Z" fill="#0D21A1"/><path d="M162.676 86.1311H151.798C151.219 86.1311 150.729 85.6152 150.729 85.0056V16.1626C150.729 15.5529 151.219 15.0371 151.798 15.0371H162.676C163.255 15.0371 163.746 15.5529 163.746 16.1626V85.0056C163.746 85.6621 163.3 86.1311 162.676 86.1311Z" fill="#0D21A1"/><path d="M348.422 86.1311H337.545C336.965 86.1311 336.475 85.6152 336.475 85.0056V16.1626C336.475 15.5529 336.965 15.0371 337.545 15.0371H348.422C349.001 15.0371 349.492 15.5529 349.492 16.1626V85.0056C349.492 85.6621 349.046 86.1311 348.422 86.1311Z" fill="#0D21A1"/><path d="M196.662 86.2399C181.892 86.1953 170.166 74.5619 170.211 59.8976C170.211 45.4115 182.071 33.7335 196.751 33.7335C211.252 33.7335 222.799 45.5452 222.978 60.0313C223.113 74.1162 210.894 86.5519 196.662 86.2399ZM209.909 59.9867C209.909 52.6323 204.002 46.7041 196.662 46.7041C189.322 46.7041 183.279 52.6768 183.279 59.9421C183.279 67.3857 189.187 73.2693 196.706 73.2693C204.136 73.2693 209.909 67.4749 209.909 59.9867Z" fill="#0D21A1"/><path fill-rule="evenodd" clip-rule="evenodd" d="M38.6621 88.7639C52.2211 102.323 74.2046 102.323 87.7636 88.7639C101.323 75.2049 101.323 53.2214 87.7636 39.6624L59.6521 11.5509C46.0931 -2.00812 24.1096 -2.00812 10.5506 11.5509C-3.00842 25.1099 -3.00842 47.0934 10.5506 60.6524L38.6621 88.7639ZM78.0183 79.0186C69.8415 87.1954 56.5843 87.1954 48.4075 79.0186L20.2959 50.9071C12.1191 42.7302 12.1191 29.473 20.2959 21.2962C28.4727 13.1194 41.7299 13.1194 49.9068 21.2962L78.0183 49.4078C86.1951 57.5846 86.1951 70.8418 78.0183 79.0186Z" fill="url(#paint0_linear_314_160)"/><path fill-rule="evenodd" clip-rule="evenodd" d="M38.6626 39.6624C25.1036 53.2214 25.1036 75.2049 38.6626 88.7639C52.2216 102.323 74.2051 102.323 87.7641 88.7639L115.876 60.6523C129.435 47.0933 129.435 25.1098 115.876 11.5508C102.317 -2.00819 80.3331 -2.00818 66.7741 11.5508L38.6626 39.6624ZM48.4079 79.0185C40.2311 70.8417 40.2311 57.5845 48.4079 49.4077L76.5195 21.2962C84.6963 13.1194 97.9535 13.1194 106.13 21.2962C114.307 29.473 114.307 42.7302 106.13 50.907L78.0187 79.0185C69.8419 87.1954 56.5847 87.1954 48.4079 79.0185Z" fill="url(#paint1_linear_314_160)"/><rect x="48.9009" y="20.3765" width="13.743" height="23.9778" transform="rotate(-45 48.9009 20.3765)" fill="url(#paint2_linear_314_160)"/></g><defs><linearGradient id="paint0_linear_314_160" x1="15.4232" y1="16.4235" x2="82.891" y2="83.8913" gradientUnits="userSpaceOnUse"><stop stop-color="#9E94FC"/><stop offset="1" stop-color="#9431F6"/></linearGradient><linearGradient id="paint1_linear_314_160" x1="43.5353" y1="83.8912" x2="111.003" y2="16.4235" gradientUnits="userSpaceOnUse"><stop stop-color="#0D21A1"/><stop offset="1" stop-color="#466AFF"/></linearGradient><linearGradient id="paint2_linear_314_160" x1="55.7724" y1="20.3765" x2="55.7724" y2="44.3543" gradientUnits="userSpaceOnUse"><stop stop-color="#9C79FB"/><stop offset="1" stop-color="#995FF9"/></linearGradient><clipPath id="clip0_314_160"><rect width="350" height="100" fill="white"/></clipPath></defs></svg>